<svg width="31" height="32" viewBox="0 0 31 32" fill="none" xmlns="http://www.w3.org/2000/svg">
<g clip-path="url(#clip0_1_202)">
<path d="M2.90625 16C2.90625 19.4478 4.23309 22.7544 6.59487 25.1924C8.95666 27.6304 12.1599 29 15.5 29C18.8401 29 22.0433 27.6304 24.4051 25.1924C26.7669 22.7544 28.0938 19.4478 28.0938 16C28.0938 12.5522 26.7669 9.24558 24.4051 6.80761C22.0433 4.36964 18.8401 3 15.5 3C12.1599 3 8.95666 4.36964 6.59487 6.80761C4.23309 9.24558 2.90625 12.5522 2.90625 16ZM31 16C31 20.2435 29.367 24.3131 26.4602 27.3137C23.5533 30.3143 19.6109 32 15.5 32C11.3891 32 7.44666 30.3143 4.53984 27.3137C1.63303 24.3131 0 20.2435 0 16C0 11.7565 1.63303 7.68687 4.53984 4.68629C7.44666 1.68571 11.3891 0 15.5 0C19.6109 0 23.5533 1.68571 26.4602 4.68629C29.367 7.68687 31 11.7565 31 16ZM10.5957 10.9375C11.1648 10.35 12.0852 10.35 12.6482 10.9375L15.4939 13.875L18.3396 10.9375C18.9088 10.35 19.8291 10.35 20.3922 10.9375C20.9553 11.525 20.9613 12.475 20.3922 13.0562L17.5465 15.9937L20.3922 18.9312C20.9613 19.5187 20.9613 20.4687 20.3922 21.05C19.823 21.6312 18.9027 21.6375 18.3396 21.05L15.4939 18.1125L12.6482 21.05C12.0791 21.6375 11.1588 21.6375 10.5957 21.05C10.0326 20.4625 10.0266 19.5125 10.5957 18.9312L13.4414 15.9937L10.5957 13.0562C10.0266 12.4687 10.0266 11.5188 10.5957 10.9375Z" fill="url(#paint0_linear_1_202)"/>
</g>
<defs>
<linearGradient id="paint0_linear_1_202" x1="0" y1="16" x2="31" y2="16" gradientUnits="userSpaceOnUse">
<stop offset="0.432292" stop-color="#001062"/>
</linearGradient>
<clipPath id="clip0_1_202">
<rect width="32" height="31" fill="white" transform="matrix(0 1 1 0 0 0)"/>
</clipPath>
</defs>
</svg>