<svg width="42" height="33" viewBox="0 0 42 33" fill="none" xmlns="http://www.w3.org/2000/svg">
<path d="M0 12C0 5.37258 5.37258 0 12 0H42V21C42 27.6274 36.6274 33 30 33H0V12Z" fill="url(#paint0_linear_138_8)"/>
<path d="M13.125 11.0043C14.1206 10.6114 15.5481 10.1881 16.9361 10.0559C18.4327 9.91334 19.7022 10.1229 20.4375 10.8546V21.2096C19.3857 20.6464 18.0532 20.5691 16.8232 20.6863C15.4953 20.8128 14.1574 21.1762 13.125 21.548V11.0043ZM21.5625 10.8546C22.2978 10.1229 23.5673 9.91334 25.0639 10.0559C26.4519 10.1881 27.8794 10.6114 28.875 11.0043V21.548C27.8426 21.1762 26.5047 20.8128 25.1768 20.6863C23.9468 20.5691 22.6143 20.6464 21.5625 21.2096V10.8546ZM21 9.89448C19.892 8.99497 18.2852 8.85951 16.8232 8.99877C15.1199 9.16104 13.4002 9.71309 12.3297 10.1726C12.1289 10.2588 12 10.4479 12 10.6562V22.3438C12 22.5244 12.0972 22.6926 12.258 22.7904C12.4188 22.8882 12.6212 22.9021 12.7953 22.8274C13.7873 22.4015 15.3864 21.891 16.9361 21.7434C18.5201 21.5925 19.8497 21.8361 20.5608 22.6756C20.6675 22.8016 20.8291 22.875 21 22.875C21.1709 22.875 21.3325 22.8016 21.4392 22.6756C22.1503 21.8361 23.4799 21.5925 25.0639 21.7434C26.6136 21.891 28.2127 22.4015 29.2047 22.8274C29.3788 22.9021 29.5812 22.8882 29.742 22.7904C29.9028 22.6926 30 22.5244 30 22.3438V10.6562C30 10.4479 29.8711 10.2588 29.6703 10.1726C28.5998 9.71309 26.8801 9.16104 25.1768 8.99877C23.7148 8.85951 22.108 8.99497 21 9.89448Z" fill="white"/>
<defs>
<linearGradient id="paint0_linear_138_8" x1="2.38749e-07" y1="15.867" x2="42" y2="15.867" gradientUnits="userSpaceOnUse">
<stop offset="0.333333" stop-color="#001062"/>
</linearGradient>
</defs>
</svg>