<svg width="137" height="37" viewBox="0 0 137 37" fill="none" xmlns="http://www.w3.org/2000/svg">
<path d="M0 12C0 5.37258 5.37258 0 12 0H137V25C137 31.6274 131.627 37 125 37H0V12Z" fill="url(#paint0_linear_1_186)"/>
<path d="M13.125 13.0043C14.1206 12.6114 15.5481 12.1881 16.9361 12.0559C18.4327 11.9133 19.7022 12.1229 20.4375 12.8546V23.2096C19.3857 22.6464 18.0532 22.5691 16.8232 22.6863C15.4953 22.8128 14.1574 23.1762 13.125 23.548V13.0043ZM21.5625 12.8546C22.2978 12.1229 23.5673 11.9133 25.0639 12.0559C26.4519 12.1881 27.8794 12.6114 28.875 13.0043V23.548C27.8426 23.1762 26.5047 22.8128 25.1768 22.6863C23.9468 22.5691 22.6143 22.6464 21.5625 23.2096V12.8546ZM21 11.8945C19.892 10.995 18.2852 10.8595 16.8232 10.9988C15.1199 11.161 13.4002 11.7131 12.3297 12.1726C12.1289 12.2588 12 12.4479 12 12.6562V24.3438C12 24.5244 12.0972 24.6926 12.258 24.7904C12.4188 24.8882 12.6212 24.9021 12.7953 24.8274C13.7873 24.4015 15.3864 23.891 16.9361 23.7434C18.5201 23.5925 19.8497 23.8361 20.5608 24.6756C20.6675 24.8016 20.8291 24.875 21 24.875C21.1709 24.875 21.3325 24.8016 21.4392 24.6756C22.1503 23.8361 23.4799 23.5925 25.0639 23.7434C26.6136 23.891 28.2127 24.4015 29.2047 24.8274C29.3788 24.9021 29.5812 24.8882 29.742 24.7904C29.9028 24.6926 30 24.5244 30 24.3438V12.6562C30 12.4479 29.8711 12.2588 29.6703 12.1726C28.5998 11.7131 26.8801 11.161 25.1768 10.9988C23.7148 10.8595 22.108 10.995 21 11.8945Z" fill="white"/>
<path d="M37.553 24.085V22.147H40.664C41.2307 22.147 41.6613 21.994 41.956 21.688C42.2507 21.3707 42.398 20.94 42.398 20.396C42.398 19.852 42.2507 19.4327 41.956 19.138C41.6613 18.832 41.2307 18.679 40.664 18.679H37.553V17.2H40.494C41.3213 17.2 42.058 17.302 42.704 17.506C43.3613 17.6987 43.8713 18.0273 44.234 18.492C44.608 18.9567 44.795 19.58 44.795 20.362V20.6C44.795 21.3367 44.6307 21.9657 44.302 22.487C43.9847 22.997 43.503 23.3937 42.857 23.677C42.2223 23.949 41.4347 24.085 40.494 24.085H37.553ZM35.53 24.085V11.505H37.893V24.085H35.53ZM37.553 18.288V16.809H40.205C40.783 16.809 41.208 16.656 41.48 16.35C41.752 16.044 41.888 15.636 41.888 15.126C41.888 14.616 41.752 14.208 41.48 13.902C41.208 13.596 40.783 13.443 40.205 13.443H37.553V11.505H39.984C41.3893 11.505 42.4547 11.7997 43.18 12.389C43.9167 12.9783 44.285 13.8227 44.285 14.922V15.16C44.285 15.9307 44.098 16.5483 43.724 17.013C43.3613 17.4663 42.857 17.795 42.211 17.999C41.565 18.1917 40.8227 18.288 39.984 18.288H37.553ZM47.4891 24V14.769H49.8521V24H47.4891ZM46.1971 16.537V14.769H49.8521V16.537H46.1971ZM48.3561 13.664C47.8914 13.664 47.5458 13.545 47.3191 13.307C47.1038 13.0577 46.9961 12.7517 46.9961 12.389C46.9961 12.0037 47.1038 11.692 47.3191 11.454C47.5458 11.216 47.8914 11.097 48.3561 11.097C48.8208 11.097 49.1608 11.216 49.3761 11.454C49.5914 11.692 49.6991 12.0037 49.6991 12.389C49.6991 12.7517 49.5914 13.0577 49.3761 13.307C49.1608 13.545 48.8208 13.664 48.3561 13.664ZM57.9984 24.306C57.2391 24.306 56.5704 24.1473 55.9924 23.83C55.4144 23.5013 54.9611 23.0253 54.6324 22.402C54.3038 21.7787 54.1224 21.025 54.0884 20.141H54.4454V24H52.5754V11.59H54.9384V17.795L54.3094 18.764C54.3548 17.812 54.5418 17.0187 54.8704 16.384C55.2104 15.7493 55.6638 15.2733 56.2304 14.956C56.7971 14.6387 57.4374 14.48 58.1514 14.48C58.7861 14.48 59.3641 14.599 59.8854 14.837C60.4068 15.075 60.8544 15.4093 61.2284 15.84C61.6024 16.2593 61.8858 16.7523 62.0784 17.319C62.2824 17.8857 62.3844 18.5033 62.3844 19.172V19.529C62.3844 20.1977 62.2824 20.821 62.0784 21.399C61.8744 21.977 61.5798 22.487 61.1944 22.929C60.8091 23.3597 60.3444 23.6997 59.8004 23.949C59.2678 24.187 58.6671 24.306 57.9984 24.306ZM57.4714 22.317C57.9814 22.317 58.4234 22.1923 58.7974 21.943C59.1828 21.6823 59.4831 21.331 59.6984 20.889C59.9138 20.447 60.0214 19.937 60.0214 19.359C60.0214 18.7697 59.9138 18.2597 59.6984 17.829C59.4831 17.3983 59.1828 17.064 58.7974 16.826C58.4234 16.588 57.9814 16.469 57.4714 16.469C57.0068 16.469 56.5761 16.571 56.1794 16.775C55.7941 16.979 55.4768 17.2793 55.2274 17.676C54.9894 18.0727 54.8704 18.5487 54.8704 19.104V19.784C54.8704 20.3167 54.9951 20.77 55.2444 21.144C55.4938 21.518 55.8168 21.807 56.2134 22.011C56.6101 22.215 57.0294 22.317 57.4714 22.317ZM64.5811 24V11.59H66.9441V24H64.5811ZM63.4251 13.358V11.59H66.9441V13.358H63.4251ZM70.0838 24V14.769H72.4468V24H70.0838ZM68.7918 16.537V14.769H72.4468V16.537H68.7918ZM70.9508 13.664C70.4862 13.664 70.1405 13.545 69.9138 13.307C69.6985 13.0577 69.5908 12.7517 69.5908 12.389C69.5908 12.0037 69.6985 11.692 69.9138 11.454C70.1405 11.216 70.4862 11.097 70.9508 11.097C71.4155 11.097 71.7555 11.216 71.9708 11.454C72.1862 11.692 72.2938 12.0037 72.2938 12.389C72.2938 12.7517 72.1862 13.0577 71.9708 13.307C71.7555 13.545 71.4155 13.664 70.9508 13.664ZM79.6071 24.323C78.7911 24.323 78.0715 24.1927 77.4481 23.932C76.8248 23.6713 76.2978 23.32 75.8671 22.878C75.4365 22.4247 75.1078 21.9147 74.8811 21.348C74.6658 20.7813 74.5581 20.192 74.5581 19.58V19.223C74.5581 18.5883 74.6715 17.9877 74.8981 17.421C75.1361 16.843 75.4705 16.333 75.9011 15.891C76.3431 15.4377 76.8758 15.0863 77.4991 14.837C78.1225 14.5763 78.8251 14.446 79.6071 14.446C80.3891 14.446 81.0918 14.5763 81.7151 14.837C82.3385 15.0863 82.8655 15.4377 83.2961 15.891C83.7381 16.333 84.0725 16.843 84.2991 17.421C84.5258 17.9877 84.6391 18.5883 84.6391 19.223V19.58C84.6391 20.192 84.5258 20.7813 84.2991 21.348C84.0838 21.9147 83.7608 22.4247 83.3301 22.878C82.8995 23.32 82.3725 23.6713 81.7491 23.932C81.1258 24.1927 80.4118 24.323 79.6071 24.323ZM79.6071 22.3C80.1851 22.3 80.6725 22.1753 81.0691 21.926C81.4658 21.6653 81.7661 21.3197 81.9701 20.889C82.1741 20.447 82.2761 19.9483 82.2761 19.393C82.2761 18.8263 82.1685 18.3277 81.9531 17.897C81.7491 17.455 81.4431 17.1093 81.0351 16.86C80.6385 16.5993 80.1625 16.469 79.6071 16.469C79.0518 16.469 78.5701 16.5993 78.1621 16.86C77.7655 17.1093 77.4595 17.455 77.2441 17.897C77.0288 18.3277 76.9211 18.8263 76.9211 19.393C76.9211 19.9483 77.0231 20.447 77.2271 20.889C77.4425 21.3197 77.7485 21.6653 78.1451 21.926C78.5418 22.1753 79.0291 22.3 79.6071 22.3ZM88.9182 24.085V22.147H92.0292C92.5959 22.147 93.0266 21.994 93.3212 21.688C93.6159 21.3707 93.7632 20.94 93.7632 20.396C93.7632 19.852 93.6159 19.4327 93.3212 19.138C93.0266 18.832 92.5959 18.679 92.0292 18.679H88.9182V17.2H91.8592C92.6866 17.2 93.4232 17.302 94.0692 17.506C94.7266 17.6987 95.2366 18.0273 95.5992 18.492C95.9732 18.9567 96.1602 19.58 96.1602 20.362V20.6C96.1602 21.3367 95.9959 21.9657 95.6672 22.487C95.3499 22.997 94.8682 23.3937 94.2222 23.677C93.5876 23.949 92.7999 24.085 91.8592 24.085H88.9182ZM86.8952 24.085V11.505H89.2582V24.085H86.8952ZM88.9182 18.288V16.809H91.5702C92.1482 16.809 92.5732 16.656 92.8452 16.35C93.1172 16.044 93.2532 15.636 93.2532 15.126C93.2532 14.616 93.1172 14.208 92.8452 13.902C92.5732 13.596 92.1482 13.443 91.5702 13.443H88.9182V11.505H91.3492C92.7546 11.505 93.8199 11.7997 94.5452 12.389C95.2819 12.9783 95.6502 13.8227 95.6502 14.922V15.16C95.6502 15.9307 95.4632 16.5483 95.0892 17.013C94.7266 17.4663 94.2222 17.795 93.5762 17.999C92.9302 18.1917 92.1879 18.288 91.3492 18.288H88.9182ZM98.1403 27.638V25.615H99.8743C100.203 25.615 100.475 25.5697 100.69 25.479C100.917 25.3997 101.104 25.2637 101.251 25.071C101.399 24.8897 101.512 24.6347 101.591 24.306L104.073 14.769H106.334L103.597 24.816C103.416 25.5073 103.161 26.057 102.832 26.465C102.504 26.8843 102.079 27.1847 101.557 27.366C101.047 27.5473 100.413 27.638 99.6533 27.638H98.1403ZM101.013 23.796V21.926H102.985V23.796H101.013ZM100.214 23.796L97.2223 14.769H99.6023L102.441 23.796H100.214ZM112.136 24.119C111.286 24.119 110.584 24.0113 110.028 23.796C109.484 23.5693 109.076 23.1953 108.804 22.674C108.532 22.1413 108.396 21.4273 108.396 20.532L108.413 12.168H110.623L110.606 20.685C110.606 21.1383 110.725 21.4897 110.963 21.739C111.213 21.977 111.564 22.096 112.017 22.096H113.462V24.119H112.136ZM106.934 16.503V14.769H113.462V16.503H106.934ZM119.527 24.323C118.733 24.323 118.036 24.187 117.436 23.915C116.846 23.643 116.353 23.2803 115.957 22.827C115.571 22.3623 115.277 21.8467 115.073 21.28C114.88 20.7133 114.784 20.1353 114.784 19.546V19.223C114.784 18.611 114.88 18.0217 115.073 17.455C115.277 16.877 115.571 16.367 115.957 15.925C116.353 15.4717 116.841 15.1147 117.419 14.854C117.997 14.582 118.665 14.446 119.425 14.446C120.422 14.446 121.255 14.667 121.924 15.109C122.604 15.5397 123.114 16.112 123.454 16.826C123.794 17.5287 123.964 18.288 123.964 19.104V19.954H115.787V18.509H122.485L121.754 19.223C121.754 18.6337 121.669 18.1293 121.499 17.71C121.329 17.2907 121.068 16.9677 120.717 16.741C120.377 16.5143 119.946 16.401 119.425 16.401C118.903 16.401 118.461 16.52 118.099 16.758C117.736 16.996 117.458 17.3417 117.266 17.795C117.084 18.237 116.994 18.7697 116.994 19.393C116.994 19.971 117.084 20.4867 117.266 20.94C117.447 21.382 117.725 21.7333 118.099 21.994C118.473 22.2433 118.949 22.368 119.527 22.368C120.105 22.368 120.575 22.2547 120.938 22.028C121.3 21.79 121.533 21.501 121.635 21.161H123.811C123.675 21.7957 123.414 22.351 123.029 22.827C122.643 23.303 122.15 23.6713 121.55 23.932C120.96 24.1927 120.286 24.323 119.527 24.323Z" fill="white"/>
<defs>
<linearGradient id="paint0_linear_1_186" x1="7.78775e-07" y1="17.7903" x2="137" y2="17.7903" gradientUnits="userSpaceOnUse">
<stop offset="0.333333" stop-color="#001062"/>
</linearGradient>
</defs>
</svg>