<svg width="31" height="32" viewBox="0 0 31 32" fill="none" xmlns="http://www.w3.org/2000/svg">
<g clip-path="url(#clip0_262_20)">
<path d="M2.90625 16C2.90625 19.4478 4.23309 22.7544 6.59487 25.1924C8.95666 27.6304 12.1599 29 15.5 29C18.8401 29 22.0433 27.6304 24.4051 25.1924C26.7669 22.7544 28.0938 19.4478 28.0938 16C28.0938 12.5522 26.7669 9.24558 24.4051 6.80761C22.0433 4.36964 18.8401 3 15.5 3C12.1599 3 8.95666 4.36964 6.59487 6.80761C4.23309 9.24558 2.90625 12.5522 2.90625 16ZM31 16C31 20.2435 29.367 24.3131 26.4602 27.3137C23.5533 30.3143 19.6109 32 15.5 32C11.3891 32 7.44666 30.3143 4.53984 27.3137C1.63303 24.3131 0 20.2435 0 16C0 11.7565 1.63303 7.68687 4.53984 4.68629C7.44666 1.68571 11.3891 0 15.5 0C19.6109 0 23.5533 1.68571 26.4602 4.68629C29.367 7.68687 31 11.7565 31 16Z" fill="url(#paint0_linear_262_20)"/>
<circle cx="9" cy="16" r="2" fill="#001062"/>
<circle cx="16" cy="16" r="2" fill="#001062"/>
<circle cx="23" cy="16" r="2" fill="#001062"/>
</g>
<defs>
<linearGradient id="paint0_linear_262_20" x1="0" y1="16" x2="31" y2="16" gradientUnits="userSpaceOnUse">
<stop offset="0.432292" stop-color="#001062"/>
</linearGradient>
<clipPath id="clip0_262_20">
<rect width="32" height="31" fill="white" transform="matrix(0 1 1 0 0 0)"/>
</clipPath>
</defs>
</svg>
